HIERARCHY
ROOT Hips
{
	OFFSET 0.000000 88.474243 0.000000
	CHANNELS 6 Xposition Yposition Zposition Zrotation Yrotation Xrotation 
	JOINT Hips_Spine
	{
		OFFSET 0.000000 0.000000 0.000000
		CHANNELS 3 Zrotation Yrotation Xrotation
		JOINT Spine
		{
			OFFSET 0.005100 8.711998 -0.691000
			CHANNELS 3 Zrotation Yrotation Xrotation
			JOINT Spine1
			{
				OFFSET -0.009200 8.660301 -1.275000
				CHANNELS 3 Zrotation Yrotation Xrotation
				JOINT Spine2
				{
					OFFSET 0.006300 9.852501 -1.857000
					CHANNELS 3 Zrotation Yrotation Xrotation
					JOINT Spine2_Neck
					{
						OFFSET 0.000000 0.000000 0.000000
						CHANNELS 3 Zrotation Yrotation Xrotation
						JOINT Neck
						{
							OFFSET 0.016300 11.420799 -0.263300
							CHANNELS 3 Zrotation Yrotation Xrotation
							End Site #name: Head
							{
								OFFSET -0.019200 9.262405 2.362500
							}
						}
					}
					JOINT Spine2_LeftShoulder
					{
						OFFSET 0.000000 0.000000 0.000000
						CHANNELS 3 Zrotation Yrotation Xrotation
						JOINT LeftShoulder
						{
							OFFSET 5.616900 6.732201 -0.345700
							CHANNELS 3 Zrotation Yrotation Xrotation
							JOINT LeftArm
							{
								OFFSET 10.664888 -0.183372 -2.440700
								CHANNELS 3 Zrotation Yrotation Xrotation
								JOINT LeftForeArm
								{
									OFFSET 27.459126 0.000000 0.000000
									CHANNELS 3 Zrotation Yrotation Xrotation
									End Site #name: LeftHand
									{
										OFFSET 21.306858 0.000000 0.000000
									}
								}
							}
						}
					}
					JOINT Spine2_RightShoulder
					{
						OFFSET 0.000000 0.000000 0.000000
						CHANNELS 3 Zrotation Yrotation Xrotation
						JOINT RightShoulder
						{
							OFFSET -5.580300 6.737503 -0.344400
							CHANNELS 3 Zrotation Yrotation Xrotation
							JOINT RightArm
							{
								OFFSET -10.679335 -0.188484 -2.383900
								CHANNELS 3 Zrotation Yrotation Xrotation
								JOINT RightForeArm
								{
									OFFSET -27.503529 0.000000 0.000000
									CHANNELS 3 Zrotation Yrotation Xrotation
									End Site #name: RightHand
									{
										OFFSET -21.306808 0.000000 0.000000
									}
								}
							}
						}
					}
				}
			}
		}
	}
	JOINT Hips_LeftUpLeg
	{
		OFFSET 0.000000 0.000000 0.000000
		CHANNELS 3 Zrotation Yrotation Xrotation
		JOINT LeftUpLeg
		{
			OFFSET 6.857700 -6.739601 0.312100
			CHANNELS 3 Zrotation Yrotation Xrotation
			JOINT LeftLeg
			{
				OFFSET -0.367590 -34.731552 -4.572400
				CHANNELS 3 Zrotation Yrotation Xrotation
				End Site #name: LeftFoot
				{
					OFFSET 0.367590 -34.656704 -6.067400
				}
			}
		}
	}
	JOINT Hips_RightUpLeg
	{
		OFFSET 0.000000 0.000000 0.000000
		CHANNELS 3 Zrotation Yrotation Xrotation
		JOINT RightUpLeg
		{
			OFFSET -6.876100 -6.733299 0.301000
			CHANNELS 3 Zrotation Yrotation Xrotation
			JOINT RightLeg
			{
				OFFSET 0.347353 -34.795158 -4.515900
				CHANNELS 3 Zrotation Yrotation Xrotation
				End Site #name: RightFoot
				{
					OFFSET -0.347353 -34.589367 -6.070300
				}
			}
		}
	}
}
MOTION
Frames: 9
Frame Time: 0.041667
0.003515 -0.009463 -0.100468 -6.847743 44.434214 -2.742183 -0.000000 -0.000000 0.000000 -0.136863 1.128042 0.485574 2.873807 0.646021 2.920773 0.000000 0.000000 0.000000 3.546624 0.658909 0.349899 -3.041323 -5.518847 -1.391526 1.830482 1.627284 1.462129 -8.159765 -14.532066 3.131905 -80.984720 2.995930 -3.203921 0.482752 -6.785031 -0.059703 2.453284 0.098973 1.815369 6.809413 11.610900 5.237331 27.810375 7.088941 -40.964555 -9.831745 75.588339 -5.249535 0.000000 -0.000000 -0.000000 -3.527510 9.641492 -19.228289 -6.416941 -21.250380 2.157193 -0.000000 0.000000 -0.000000 0.142024 -10.659761 -10.619357 0.778470 -6.691642 8.161180 
-0.326467 -0.152534 -0.187701 -7.240467 40.998769 -1.754317 -0.000000 -0.000000 -0.000000 -1.348487 1.169925 0.560136 4.125575 1.261375 1.853243 0.000000 0.000000 0.000000 3.927879 0.698903 1.688982 -2.117850 -6.501627 -4.005462 3.045258 1.239566 0.850782 -8.343923 -14.815482 2.953473 -85.085218 -9.522246 -13.645571 -1.531547 1.737559 -0.234819 3.645936 0.484898 2.772488 9.637287 13.216475 4.461294 23.919858 10.657667 -52.892672 -3.454555 79.961276 1.212447 0.000000 -0.000000 -0.000000 -2.707187 10.647514 -19.017993 -5.685573 -17.999897 -1.208078 -0.000000 0.000000 0.000000 -0.766055 -6.729001 -8.751287 5.235932 -0.819177 5.658815 
-0.484435 -0.211548 -0.292355 -8.356857 37.710359 -2.509297 0.000000 -0.000000 -0.000000 -0.866823 0.724206 -0.307126 4.653834 1.051506 1.456822 0.000000 0.000000 0.000000 4.351071 0.276328 2.454476 -1.943820 -9.472583 -4.096766 2.979872 1.173471 1.286062 -7.752520 -12.234069 2.415936 -85.349132 -10.355207 -17.177644 -1.631896 11.647967 0.338238 3.969953 0.504969 2.699450 9.627277 12.316566 3.478753 20.985707 7.229855 -60.514461 177.148845 85.506981 -177.913472 0.000000 -0.000000 -0.000000 -1.473889 12.644458 -18.133970 -4.750391 -15.567798 -0.343600 -0.000000 0.000000 -0.000000 -0.849412 -9.547198 -6.817593 7.455463 3.155346 4.186534 
-0.603697 -0.276081 -0.388938 -8.861542 33.989131 -3.133281 0.000000 -0.000000 -0.000000 0.802497 0.227249 -0.942209 4.414798 0.636676 1.589506 0.000000 0.000000 0.000000 4.294710 0.100741 2.782961 -1.650633 -10.454213 -5.322929 2.746859 0.801222 1.140712 -8.738735 -7.243717 -0.317466 -86.387432 -13.056810 -21.606727 -1.743215 17.341002 0.390464 3.853586 0.220241 2.920679 8.266219 8.529076 3.429225 18.379146 6.862321 -67.336600 176.978168 74.532397 -178.017954 0.000000 -0.000000 -0.000000 -0.772603 13.516441 -16.828043 -3.735769 -15.480424 -0.756036 -0.000000 0.000000 -0.000000 -0.573598 -13.606691 -5.469997 8.604433 6.149147 3.739207 
-0.687942 -0.317902 -0.462590 -9.145266 31.649270 -3.319935 0.000000 -0.000000 -0.000000 2.133439 0.485415 -0.798021 4.119000 0.501802 1.898255 0.000000 0.000000 0.000000 4.137654 0.088238 3.239894 -1.262013 -11.209797 -5.784845 2.544677 0.615028 1.297142 -10.023577 -4.291950 -2.148997 -87.169142 -14.751100 -22.168594 -1.858319 21.708194 0.342818 3.684084 -0.013687 3.236506 7.463835 5.151751 3.472064 17.088783 6.876869 -70.621234 177.000220 70.784613 -178.082805 0.000000 -0.000000 -0.000000 -0.354126 13.587578 -15.625141 -3.187918 -15.900062 -1.854085 -0.000000 0.000000 -0.000000 -0.186402 -15.927055 -4.773480 8.567590 7.316962 4.015693 
-0.760798 -0.347317 -0.530125 -9.390243 30.612676 -3.304254 0.000000 -0.000000 -0.000000 3.251666 0.874246 -0.874042 3.816511 0.405730 2.353213 0.000000 0.000000 0.000000 3.942621 0.092786 3.726131 -1.019590 -12.147917 -5.662778 2.349725 0.572187 1.782973 -10.843587 -3.675138 -2.528254 -86.514844 -15.920862 -21.028713 -1.906398 24.029895 0.328149 3.526915 -0.141666 3.614933 7.847011 3.647593 3.441439 17.841027 7.589143 -71.061588 177.232884 70.326216 -177.953289 0.000000 -0.000000 -0.000000 -0.144248 13.564241 -15.005471 -3.009785 -16.241304 -2.602545 -0.000000 0.000000 -0.000000 0.336549 -17.022773 -4.696749 7.621887 6.644885 4.540160 
-0.821805 -0.379202 -0.592839 -9.537742 30.247864 -3.066747 -0.000000 -0.000000 -0.000000 3.962995 1.307622 -0.780575 3.503864 0.301490 2.770639 0.000000 0.000000 0.000000 3.745375 0.125408 4.096489 -1.093175 -12.877233 -5.502214 2.151083 0.556863 2.227650 -11.367219 -3.755526 -2.260940 -85.356609 -16.767172 -20.101683 -1.913723 24.932217 0.370465 3.341171 -0.202657 3.812313 8.480585 3.755675 3.592224 19.336406 8.512619 -69.921997 177.623803 71.263940 -177.701833 0.000000 -0.000000 -0.000000 -0.066844 13.486653 -14.714673 -2.853406 -16.486263 -3.488727 -0.000000 0.000000 -0.000000 0.867140 -17.954377 -4.659421 6.614475 5.514168 4.590079 
-0.870739 -0.420930 -0.651396 -9.671574 30.308991 -2.849913 0.000000 -0.000000 -0.000000 4.403182 1.622767 -0.687694 3.290815 0.235147 3.061611 0.000000 0.000000 0.000000 3.599556 0.154853 4.336145 -1.314400 -13.608259 -5.118224 1.995968 0.537629 2.495907 -11.879109 -3.711752 -1.874462 -84.656788 -17.348209 -19.801518 -1.916229 25.340158 0.406171 3.185722 -0.240464 3.877232 8.991834 4.553179 4.041769 20.647136 9.629963 -67.991389 178.081293 72.947183 -177.356751 0.000000 -0.000000 -0.000000 -0.021859 13.347895 -14.606077 -2.741545 -16.476790 -4.072773 -0.000000 0.000000 -0.000000 1.350129 -18.548359 -4.695214 5.838623 4.539125 4.608698 
-0.901658 -0.469011 -0.705604 -9.839066 30.771810 -2.749159 0.000000 -0.000000 -0.000000 4.698408 1.820051 -0.730593 3.207315 0.195662 3.277508 0.000000 0.000000 0.000000 3.547070 0.195546 4.478803 -1.597882 -14.407566 -4.519614 1.931014 0.533671 2.630720 -12.234451 -3.352397 -1.773926 -84.456614 -17.637093 -19.870250 -1.920502 25.740163 0.416865 3.126885 -0.254981 3.922549 9.355625 5.320303 4.549955 21.785009 10.805691 -65.517223 178.575593 75.834248 -176.916878 0.000000 -0.000000 -0.000000 0.035311 13.209069 -14.646147 -2.708645 -16.284657 -4.366123 0.000000 0.000000 -0.000000 1.695130 -19.242256 -4.754311 5.359224 3.907148 4.712376 
